PathFileType	4	(X/Y/Z)	Patient4_TMGait_0pt3_02_right_12.trc.trc
DataRate	CameraRate	NumFrames	NumMarkers	Units	OrigDataRate	OrigDataStartFrame	OrigNumFrames
51.094890510949	51.094890510949	4	33	mm	51.094890510949	53	       141
Frame#	Time	Sacral			L.Shoulder			Chest			R.Shoulder			Neck			R.ASIS			L.ASIS			R.Thigh.Superior			R.Thigh.Lateral			R.Thigh.Inferior			R.Patella			L.Thigh.Superior			L.Thigh.Lateral			L.Thigh.Inferior			L.Patella			L.Shank.Superior			L.Shank.Lateral			L.Shank.Inferior			R.Shank.Superior			R.Shank.Lateral			R.Shank.Inferior			R.Heel			R.Midfoot.Superior			R.Midfoot.Lateral			R.Toe			L.Heel			L.Midfoot.Lateral			L.Midfoot.Superior			L.Toe			L.Elbow			L.Wrist			R.Elbow			R.Wrist			
		X1	Y1	Z1	X2	Y2	Z2	X3	Y3	Z3	X4	Y4	Z4	X5	Y5	Z5	X6	Y6	Z6	X7	Y7	Z7	X8	Y8	Z8	X9	Y9	Z9	X10	Y10	Z10	X11	Y11	Z11	X12	Y12	Z12	X13	Y13	Z13	X14	Y14	Z14	X15	Y15	Z15	X16	Y16	Z16	X17	Y17	Z17	X18	Y18	Z18	X19	Y19	Z19	X20	Y20	Z20	X21	Y21	Z21	X22	Y22	Z22	X23	Y23	Z23	X24	Y24	Z24	X25	Y25	Z25	X26	Y26	Z26	X27	Y27	Z27	X28	Y28	Z28	X29	Y29	Z29	X30	Y30	Z30	X31	Y31	Z31	X32	Y32	Z32	X33	Y33	Z33	

53	23.447714285714	726.774131754609	999.608124451712	549.647726491272	954.594517762671	1425.057047763892	407.391917811099	1026.160913651677	1346.443922592913	580.031068269821	920.325988869491	1419.399290579819	741.184952307486	923.250970753150	1483.786690555337	564.270559744028	944.536276920077	930.014252669404	692.261961977645	957.699941559549	952.168350056334	418.001790804367	997.067374923337	734.825250587672	650.264930378990	918.747219446164	618.161843937875	697.811105651584	1000.983438829682	573.173462744365	617.484404714896	1005.088589897046	479.425609622489	619.505803777223	1021.769198511803	753.594059799820	443.502797513816	971.476696230233	634.227613231725	357.921029919612	1058.786726885394	560.351890783905	431.093105696299	1064.837944247586	473.228763879716	419.420717426221	1000.409419492642	413.180783791303	394.727533144731	865.956033702985	371.910123475408	329.271635602049	857.254276240860	236.329025146472	367.074406482046	963.371302253097	391.778448624947	620.682741203341	879.032464412529	295.535204621060	679.648648047340	906.850815472965	199.892342555320	612.104164622069	753.768848834146	43.497155735399	581.205777668187	927.722195906245	97.168514004341	614.602869701404	838.476292651844	37.190430601378	654.041545024061	1046.486100793643	43.778441554848	639.616196309039	670.523986039406	146.614504216581	382.403005900214	736.725989633321	128.485097500257	298.078256006419	838.666723923845	145.944978646821	327.711089955511	932.798120702354	54.829517334938	280.393988993501	955.604964466492	1068.858218765809	294.104466716350	1057.510975384372	833.384600226837	314.540242276890	891.130047001566	1071.124520438101	863.413831096702	1026.442477358490	854.889149286924	922.895306086944	
54	23.467285714286	724.816792794156	995.728349720686	551.800063047924	951.229846532292	1420.625707469013	405.129888725117	1024.940886480342	1342.877960654598	577.277822858419	921.282706548081	1416.595279493186	739.671382821001	922.151346041394	1480.282589923440	562.237567596865	944.862850805729	926.941618033646	691.510772269273	954.328976081595	949.077140129325	417.031366835857	999.073158298328	732.712130449152	647.361743603663	923.251776559365	615.039653790658	696.170500733499	1004.233429252565	570.935433618115	613.984404309510	1009.028551403564	476.146988998779	615.780783948009	1021.655708398510	753.054420076436	445.559910539263	974.631888633883	632.517309067658	360.447582884168	1062.039924556407	560.671875296277	435.406007840479	1070.377137738378	473.924999276585	423.891513649367	1008.617480018471	412.241840609886	398.196333782018	876.535002183307	365.164647242837	331.675448876272	873.391410397935	229.119157564184	369.510148067200	965.328601330742	388.642064141302	617.743298503675	880.029572510115	293.937141272122	678.063045006411	904.253862124501	197.914147353453	610.133557877020	748.031303049499	43.557288433042	581.088800528508	921.903147867660	96.812469755083	613.908471344559	832.662681537958	37.271114614851	653.950933564588	1040.743430825485	43.144099485344	639.558981312842	690.516369862294	131.328480991620	383.599534390616	758.143542261898	115.808288332278	299.791411968111	858.999888352586	137.765493813513	330.180104384270	957.441829688680	50.696265508541	283.811186250446	942.590172919575	1063.548343574199	294.297172790060	1022.322916104525	818.058322031661	305.774862594996	899.429680284685	1067.591260625891	862.402380536843	1049.927910046921	860.489968865127	916.267756255811	
55	23.486857142857	722.947939638437	992.058488764073	553.974054907212	947.699340674800	1416.325257696929	402.504807611563	1023.817582524861	1339.478521304107	574.011851588089	922.580601104128	1414.007444939228	737.741054967232	921.172072028344	1476.942398320427	559.817563086992	945.261774401148	924.023172311998	690.574316433595	950.800047678085	945.996836194775	415.939629241623	1000.792662036621	730.564705430306	644.783550714885	927.139192675111	612.062271600579	694.692091951311	1006.972647623066	568.706483039641	610.859552808531	1012.277641641832	472.973303547420	612.451844393323	1021.430094399831	752.749098749409	447.447521092599	977.535118156117	631.008031026146	362.827196086045	1065.334126916519	561.316801626293	439.207353787099	1075.930264526014	475.003050899585	427.948906770866	1016.884775899872	411.646085885646	401.618169364532	887.289605533496	358.608435185980	334.462199019642	889.915399965202	222.421312913604	372.631469232055	966.721221108795	385.629469034068	615.148657300719	880.450714077860	292.401870260612	676.618985922573	901.378467266339	196.032150664104	608.443452292246	742.277296733892	43.630916270261	581.031007391421	916.050130632381	96.494548949749	613.313871627314	826.845940438976	37.324318239410	653.910408934815	1034.981542008757	42.591939325261	639.534247386488	711.301294869483	116.619832534270	386.093970868176	780.118865877676	103.588457336545	302.719106270308	879.739378833533	130.166093625960	333.618752328282	982.332455614099	47.257502961685	288.259782549323	928.998823184562	1059.136474457059	293.300190309999	987.926630561396	806.511581552586	296.943803635449	908.099976075371	1064.475549195655	860.809789389368	1074.298382823316	868.519314999192	907.648346426064	
56	23.506428571429	721.253950445781	988.883298869495	556.116229914503	944.048877884870	1412.437773933217	399.555135497104	1022.824545592210	1336.503293703573	570.249995188355	924.251898273141	1411.875114878454	735.382279869254	920.326805511582	1474.015747877196	557.035352292202	945.733287572690	921.484282941673	689.470447742088	947.229649431352	943.166706172058	414.752621498904	1002.036150688748	728.494235816228	642.606042289255	930.059681906954	609.414056385673	693.423429917393	1008.851287489770	566.591050293287	608.210864114326	1014.423508389205	470.064930225936	609.624593311629	1021.089909626963	752.841799307689	448.929057554433	980.007729741070	629.895573570095	364.829395893023	1068.559050290191	562.425202720702	442.121516531054	1081.330000303225	476.630520912388	431.237277745388	1025.002559783701	411.594123920172	404.697240853084	898.014557032930	352.536522643386	337.382502027370	906.551360569204	216.567092388250	376.177463031303	967.216922189819	382.909934242680	612.973058258111	880.035003859397	291.026067955621	675.373528025223	898.096785014166	194.353955960050	607.077824633782	736.494733820075	43.718107522433	581.030726317520	910.164092230506	96.224757212447	612.836738490759	821.019224736606	37.354345757292	653.915794787152	1029.192197321302	42.135014267358	639.540227345832	732.592875609306	102.962357673789	389.684704731056	802.336803385247	92.267262326669	306.643589213702	900.571090365093	123.502479714745	337.765521234204	1007.057502099159	44.826931760120	293.445108917934	914.764047522436	1055.936075821585	291.108297004079	954.981967094114	798.719819933456	288.285430077483	917.311440878158	1062.064160039408	858.680372962088	1099.205375086092	879.404497284684	897.059248302429	
